<?xml version="1.0" encoding="utf-8"?>
<svg viewBox="-79.798 157.861 649.187 49.548" xmlns="http://www.w3.org/2000/svg">
  <g transform="matrix(0.262709, 0, 0, -1.414636, -150.162554, 215.88132)" fill="#000000" stroke="none" style="">
    <path d="M 379.814 23 C 604.854 21 970.242 21 1190.442 23 C 1411.852 24 1227.949 25 781.498 25 C 335.048 25 154.774 24 379.814 23 Z" style="fill: rgb(217, 217, 217);"/>
    <path d="M 1799.359 23 C 2027.591 21 2403.799 21 2633.285 23 C 2861.518 24 2674.668 25 2215.695 25 C 1756.722 25 1569.873 24 1799.359 23 Z" style="fill: rgb(217, 217, 217);"/>
  </g>
  <mask id="path-1-inside-1_232_3764" fill="white">
    <path d="M 241.345 166.36 C 241.227 166.366 240.804 166.408 240.412 166.443 C 238.926 166.574 236.998 166.96 236.761 167.168 C 236.556 167.346 236.569 167.637 236.793 167.803 C 236.985 167.952 237.035 167.952 238.105 167.714 C 242.228 166.805 247.116 167.198 250.703 168.736 C 253.608 169.971 255.89 172.169 257.097 174.865 C 257.47 175.703 257.525 176.094 257.339 176.451 C 257.19 176.736 256.835 177.051 256.593 177.11 C 256.5 177.14 250.25 177.158 242.707 177.158 L 228.988 177.158 L 228.69 176.98 C 228.056 176.605 227.95 176.053 228.323 175.144 C 229.486 172.365 231.631 170.191 234.504 168.885 C 235.337 168.504 235.499 168.385 235.499 168.148 C 235.499 167.94 235.25 167.685 235.045 167.685 C 234.964 167.685 234.511 167.868 234.031 168.094 C 231.246 169.413 229.175 171.361 227.882 173.885 C 227.664 174.313 227.415 174.865 227.322 175.109 C 227.011 175.947 227.135 176.748 227.676 177.336 L 227.931 177.609 L 227.614 177.918 C 227.023 178.5 226.819 179.07 226.868 180.044 C 226.893 180.52 226.93 180.68 227.086 181.001 C 227.403 181.642 227.912 182.093 228.553 182.302 L 228.876 182.408 L 228.876 183.721 L 228.876 185.039 L 228.578 185.146 C 227.838 185.414 227.241 185.984 226.998 186.649 C 226.825 187.124 226.843 188.27 227.029 188.71 C 227.303 189.363 227.795 189.826 228.504 190.106 L 228.876 190.248 L 228.914 190.92 C 228.939 191.287 229.001 191.762 229.063 191.976 C 229.654 194.109 231.469 195.658 234.162 196.33 C 235.3 196.615 235.394 196.615 243.117 196.597 C 250.237 196.573 250.405 196.573 250.952 196.449 C 253.906 195.795 255.872 194.209 256.487 191.976 C 256.549 191.762 256.611 191.287 256.636 190.92 L 256.674 190.248 L 257.047 190.106 C 258.091 189.702 258.626 188.953 258.682 187.813 C 258.725 186.88 258.489 186.245 257.892 185.693 C 257.612 185.425 256.966 185.086 256.748 185.086 C 256.649 185.086 256.642 184.998 256.655 183.744 L 256.674 182.408 L 256.997 182.302 C 257.637 182.093 258.147 181.642 258.464 181.001 C 258.62 180.68 258.657 180.52 258.682 180.044 C 258.732 179.088 258.52 178.488 257.936 177.918 L 257.618 177.609 L 257.874 177.336 C 258.427 176.731 258.539 175.934 258.185 175.007 C 257.451 173.065 255.897 171.011 254.18 169.698 C 251.649 167.773 248.509 166.698 244.497 166.384 C 243.77 166.324 241.867 166.307 241.345 166.36 Z M 255.709 182.978 L 255.709 183.483 L 250.927 183.483 L 246.139 183.483 L 246.015 183.638 C 245.94 183.727 245.884 183.833 245.884 183.875 C 245.884 184.03 246.027 184.243 246.177 184.309 C 246.282 184.356 247.713 184.374 251.014 184.374 L 255.709 184.374 L 255.709 185.395 C 255.709 186.5 255.679 186.619 255.38 186.833 C 255.1 187.029 254.802 186.993 254.335 186.708 C 253.769 186.352 253.465 186.263 252.849 186.257 C 252.097 186.251 251.736 186.376 250.909 186.934 C 250.163 187.445 249.789 187.569 249.249 187.492 C 248.832 187.433 248.633 187.338 248.005 186.905 C 247.252 186.393 246.879 186.263 246.164 186.257 C 245.318 186.251 245.032 186.363 243.813 187.195 C 243.322 187.528 242.62 187.599 242.029 187.368 C 241.911 187.32 241.612 187.13 241.358 186.952 C 240.375 186.245 239.522 186.072 238.515 186.376 C 238.161 186.482 237.856 186.655 237.365 187.023 C 237.179 187.166 236.917 187.32 236.793 187.373 L 236.556 187.463 L 236.556 186.156 C 236.556 184.766 236.594 184.576 236.861 184.433 C 236.942 184.398 238.26 184.374 240.661 184.374 L 244.336 184.374 L 244.485 184.225 C 244.678 184.047 244.684 183.792 244.516 183.614 L 244.386 183.483 L 240.648 183.483 C 237.993 183.483 236.842 183.501 236.675 183.554 C 236.358 183.644 235.965 183.964 235.792 184.279 C 235.654 184.516 235.654 184.564 235.624 187.611 C 235.586 191.109 235.611 190.966 235.076 191.21 C 234.772 191.353 234.461 191.329 234.181 191.133 C 233.814 190.89 233.82 190.931 233.82 187.861 C 233.82 186.203 233.796 184.914 233.758 184.725 C 233.671 184.285 233.41 183.911 233.049 183.691 L 232.744 183.513 L 231.29 183.495 L 229.841 183.477 L 229.841 182.972 L 229.841 182.474 L 242.775 182.474 L 255.709 182.474 L 255.709 182.978 Z M 232.645 184.546 C 232.825 184.718 232.825 184.725 232.825 185.461 L 232.825 186.203 L 232.502 186.245 C 231.998 186.304 231.619 186.441 231.196 186.708 C 230.779 186.975 230.487 187.023 230.201 186.875 C 229.878 186.714 229.841 186.554 229.841 185.419 L 229.841 184.374 L 231.153 184.374 L 232.465 184.374 L 232.645 184.546 Z M 232.85 190.616 C 232.937 191.234 233.336 191.769 233.92 192.042 C 234.367 192.255 235.095 192.243 235.537 192.024 C 236.127 191.727 236.556 191.103 236.556 190.539 L 236.556 190.313 L 246.133 190.313 L 255.709 190.313 L 255.709 190.664 C 255.709 192.119 254.882 193.58 253.577 194.423 C 252.768 194.946 251.512 195.427 250.486 195.605 C 249.802 195.724 235.755 195.724 235.064 195.605 C 233.316 195.309 231.737 194.495 230.866 193.444 C 230.239 192.689 229.841 191.65 229.841 190.741 L 229.841 190.313 L 231.327 190.313 L 232.807 190.313 L 232.85 190.616 Z"/>
  </mask>
  <path d="M 241.345 166.36 C 241.226 166.365 240.804 166.407 240.412 166.443 C 238.926 166.573 236.998 166.96 236.761 167.167 C 236.556 167.345 236.569 167.637 236.793 167.803 C 236.985 167.951 237.036 167.951 238.105 167.714 C 242.227 166.805 247.116 167.197 250.703 168.735 C 253.608 169.971 255.89 172.169 257.097 174.865 C 257.47 175.702 257.525 176.094 257.339 176.451 C 257.19 176.736 256.835 177.051 256.592 177.11 C 256.5 177.14 250.25 177.158 242.707 177.158 L 228.989 177.158 L 228.69 176.979 C 228.056 176.605 227.95 176.053 228.324 175.144 C 229.486 172.364 231.632 170.191 234.504 168.884 C 235.337 168.503 235.499 168.385 235.499 168.147 C 235.499 167.94 235.25 167.684 235.045 167.684 C 234.965 167.684 234.51 167.868 234.032 168.094 C 231.245 169.412 229.175 171.361 227.882 173.885 C 227.664 174.313 227.415 174.865 227.322 175.109 C 227.011 175.946 227.135 176.747 227.676 177.335 L 227.931 177.609 L 227.614 177.918 C 227.023 178.5 226.818 179.07 226.868 180.044 C 226.893 180.519 226.93 180.68 227.085 181 C 227.403 181.642 227.912 182.093 228.553 182.301 L 228.877 182.408 L 228.877 183.72 L 228.877 185.039 L 228.578 185.146 C 227.838 185.414 227.241 185.984 226.998 186.649 C 226.824 187.124 226.843 188.27 227.03 188.71 C 227.303 189.363 227.795 189.826 228.503 190.106 L 228.877 190.248 L 228.914 190.919 C 228.939 191.287 229.001 191.762 229.063 191.976 C 229.654 194.109 231.469 195.658 234.162 196.33 C 235.301 196.615 235.394 196.615 243.117 196.597 C 250.237 196.573 250.405 196.573 250.953 196.449 C 253.906 195.795 255.872 194.209 256.487 191.976 C 256.549 191.762 256.611 191.287 256.636 190.919 L 256.673 190.248 L 257.047 190.106 C 258.092 189.701 258.626 188.953 258.682 187.812 C 258.725 186.88 258.489 186.245 257.892 185.693 C 257.612 185.425 256.966 185.086 256.748 185.086 C 256.649 185.086 256.642 184.997 256.655 183.744 L 256.673 182.408 L 256.997 182.301 C 257.637 182.093 258.147 181.642 258.464 181 C 258.62 180.68 258.657 180.519 258.682 180.044 C 258.732 179.088 258.521 178.488 257.936 177.918 L 257.618 177.609 L 257.874 177.335 C 258.427 176.73 258.539 175.934 258.185 175.007 C 257.451 173.065 255.896 171.01 254.18 169.698 C 251.649 167.773 248.509 166.698 244.497 166.384 C 243.77 166.324 241.867 166.307 241.345 166.36 Z M 255.71 182.978 L 255.71 183.483 L 250.927 183.483 L 246.139 183.483 L 246.015 183.637 C 245.94 183.727 245.885 183.833 245.885 183.875 C 245.885 184.029 246.027 184.243 246.177 184.309 C 246.282 184.356 247.713 184.374 251.014 184.374 L 255.71 184.374 L 255.71 185.395 C 255.71 186.5 255.678 186.619 255.38 186.833 C 255.1 187.029 254.802 186.993 254.335 186.708 C 253.769 186.351 253.465 186.263 252.849 186.256 C 252.097 186.251 251.736 186.375 250.909 186.934 C 250.162 187.444 249.789 187.569 249.248 187.492 C 248.832 187.433 248.633 187.338 248.005 186.904 C 247.252 186.393 246.879 186.263 246.164 186.256 C 245.318 186.251 245.032 186.363 243.814 187.195 C 243.322 187.528 242.62 187.599 242.029 187.368 C 241.91 187.319 241.612 187.13 241.357 186.951 C 240.375 186.245 239.523 186.072 238.515 186.375 C 238.161 186.482 237.856 186.655 237.365 187.023 C 237.178 187.165 236.917 187.319 236.793 187.373 L 236.556 187.463 L 236.556 186.156 C 236.556 184.766 236.594 184.576 236.861 184.433 C 236.942 184.397 238.261 184.374 240.661 184.374 L 244.336 184.374 L 244.485 184.225 C 244.678 184.047 244.684 183.792 244.516 183.613 L 244.386 183.483 L 240.648 183.483 C 237.993 183.483 236.842 183.501 236.675 183.554 C 236.358 183.643 235.966 183.964 235.792 184.279 C 235.655 184.516 235.655 184.564 235.623 187.611 C 235.586 191.109 235.611 190.966 235.077 191.21 C 234.772 191.352 234.461 191.329 234.181 191.133 C 233.814 190.889 233.82 190.931 233.82 187.86 C 233.82 186.203 233.795 184.914 233.758 184.725 C 233.671 184.285 233.41 183.911 233.049 183.691 L 232.745 183.513 L 231.289 183.495 L 229.841 183.477 L 229.841 182.972 L 229.841 182.473 L 242.775 182.473 L 255.71 182.473 L 255.71 182.978 Z M 232.645 184.546 C 232.825 184.718 232.825 184.725 232.825 185.46 L 232.825 186.203 L 232.502 186.245 C 231.998 186.304 231.619 186.441 231.196 186.708 C 230.779 186.975 230.487 187.023 230.201 186.875 C 229.878 186.714 229.841 186.554 229.841 185.419 L 229.841 184.374 L 231.152 184.374 L 232.465 184.374 L 232.645 184.546 Z M 232.85 190.616 C 232.937 191.234 233.335 191.768 233.92 192.041 C 234.368 192.255 235.095 192.243 235.536 192.024 C 236.128 191.727 236.556 191.103 236.556 190.539 L 236.556 190.313 L 246.133 190.313 L 255.71 190.313 L 255.71 190.664 C 255.71 192.119 254.882 193.58 253.577 194.423 C 252.768 194.946 251.512 195.427 250.486 195.605 C 249.802 195.723 235.754 195.723 235.064 195.605 C 233.316 195.308 231.737 194.495 230.866 193.444 C 230.238 192.689 229.841 191.649 229.841 190.741 L 229.841 190.313 L 231.327 190.313 L 232.807 190.313 L 232.85 190.616 Z" stroke="black" stroke-width="1.5" mask="url(#path-1-inside-1_232_3764)" style="fill: rgb(217, 217, 217);"/>
  <path d="M 242.874 169.952 C 242.661 170.046 242.59 170.251 242.59 170.786 C 242.59 171.191 242.615 171.303 242.725 171.431 C 242.887 171.62 243.21 171.637 243.437 171.473 C 243.579 171.367 243.592 171.32 243.592 170.762 C 243.592 170.181 243.585 170.163 243.411 170.022 C 243.217 169.87 243.088 169.852 242.874 169.952 Z" fill="black" style=""/>
  <path d="M 238.794 170.028 C 238.625 170.134 238.127 170.944 238.127 171.109 C 238.127 171.303 238.406 171.543 238.632 171.543 C 238.898 171.543 238.981 171.473 239.292 170.968 C 239.589 170.462 239.615 170.286 239.389 170.087 C 239.214 169.922 238.995 169.899 238.794 170.028 Z" fill="black" style=""/>
  <path d="M 246.832 170.064 C 246.586 170.24 246.612 170.492 246.903 170.95 C 247.245 171.478 247.297 171.525 247.576 171.525 C 247.763 171.525 247.847 171.49 247.951 171.373 C 248.144 171.149 248.125 171.032 247.788 170.515 C 247.407 169.929 247.175 169.817 246.832 170.064 Z" fill="black" style=""/>
</svg>