<?xml version="1.0" encoding="utf-8"?>
<svg viewBox="-79.798 157.861 649.187 49.548" xmlns="http://www.w3.org/2000/svg">
  <g transform="matrix(0.262709, 0, 0, -0.932649, -150.162554, 203.831653)" fill="#000000" stroke="none" style="">
    <path d="M 379.814 23 C 604.854 21 970.242 21 1190.442 23 C 1411.852 24 1227.949 25 781.498 25 C 335.048 25 154.774 24 379.814 23 Z" style="fill: rgb(217, 217, 217);"/>
    <path d="M 1799.359 23 C 2027.591 21 2403.799 21 2633.285 23 C 2861.518 24 2674.668 25 2215.695 25 C 1756.722 25 1569.873 24 1799.359 23 Z" style="fill: rgb(217, 217, 217);"/>
  </g>
  <mask id="path-1-inside-1_232_3764" fill="white">
    <path d="M 244.138 175.062 C 244.075 175.066 243.851 175.088 243.643 175.106 C 242.857 175.176 241.835 175.38 241.71 175.49 C 241.601 175.584 241.608 175.739 241.727 175.826 C 241.829 175.906 241.855 175.906 242.422 175.779 C 244.605 175.298 247.194 175.506 249.093 176.32 C 250.632 176.975 251.841 178.139 252.48 179.566 C 252.677 180.011 252.707 180.218 252.608 180.406 C 252.529 180.558 252.341 180.724 252.213 180.755 C 252.163 180.771 248.854 180.781 244.859 180.781 L 237.594 180.781 L 237.436 180.686 C 237.1 180.488 237.044 180.195 237.242 179.714 C 237.857 178.243 238.994 177.091 240.515 176.4 C 240.956 176.197 241.042 176.135 241.042 176.009 C 241.042 175.899 240.91 175.764 240.801 175.764 C 240.758 175.764 240.519 175.861 240.264 175.981 C 238.79 176.679 237.693 177.711 237.008 179.048 C 236.893 179.275 236.76 179.566 236.711 179.696 C 236.547 180.14 236.612 180.564 236.899 180.875 L 237.034 181.019 L 236.866 181.184 C 236.553 181.491 236.445 181.793 236.471 182.309 C 236.484 182.561 236.503 182.646 236.587 182.817 C 236.754 183.156 237.024 183.395 237.363 183.505 L 237.534 183.561 L 237.534 184.257 L 237.534 184.955 L 237.376 185.011 C 236.985 185.153 236.668 185.455 236.54 185.807 C 236.448 186.059 236.457 186.666 236.556 186.899 C 236.702 187.244 236.962 187.49 237.338 187.639 L 237.534 187.713 L 237.554 188.069 C 237.568 188.263 237.6 188.515 237.633 188.628 C 237.946 189.758 238.907 190.578 240.334 190.935 C 240.937 191.085 240.986 191.085 245.077 191.076 C 248.847 191.063 248.936 191.063 249.225 190.997 C 250.79 190.651 251.831 189.811 252.156 188.628 C 252.19 188.515 252.222 188.263 252.236 188.069 L 252.255 187.713 L 252.453 187.639 C 253.007 187.424 253.29 187.028 253.319 186.423 C 253.342 185.929 253.217 185.593 252.901 185.301 C 252.753 185.159 252.41 184.979 252.295 184.979 C 252.243 184.979 252.239 184.933 252.246 184.269 L 252.255 183.561 L 252.427 183.505 C 252.765 183.395 253.036 183.156 253.204 182.817 C 253.286 182.646 253.306 182.561 253.319 182.309 C 253.346 181.803 253.233 181.485 252.924 181.184 L 252.756 181.019 L 252.892 180.875 C 253.184 180.555 253.244 180.133 253.056 179.642 C 252.667 178.613 251.844 177.526 250.935 176.83 C 249.595 175.81 247.932 175.241 245.807 175.075 C 245.422 175.043 244.414 175.034 244.138 175.062 Z M 251.745 183.863 L 251.745 184.131 L 249.212 184.131 L 246.676 184.131 L 246.611 184.212 C 246.571 184.26 246.541 184.316 246.541 184.338 C 246.541 184.42 246.617 184.533 246.697 184.568 C 246.752 184.593 247.51 184.603 249.258 184.603 L 251.745 184.603 L 251.745 185.143 C 251.745 185.729 251.729 185.791 251.57 185.905 C 251.422 186.009 251.264 185.99 251.017 185.838 C 250.717 185.65 250.556 185.603 250.23 185.599 C 249.832 185.596 249.641 185.663 249.203 185.958 C 248.808 186.229 248.61 186.294 248.323 186.254 C 248.103 186.223 247.997 186.172 247.665 185.943 C 247.266 185.672 247.069 185.603 246.69 185.599 C 246.242 185.596 246.09 185.656 245.444 186.097 C 245.184 186.273 244.813 186.31 244.5 186.188 C 244.437 186.163 244.279 186.062 244.145 185.967 C 243.624 185.593 243.172 185.502 242.639 185.663 C 242.451 185.719 242.29 185.81 242.03 186.006 C 241.931 186.081 241.792 186.163 241.727 186.191 L 241.601 186.239 L 241.601 185.546 C 241.601 184.81 241.622 184.71 241.763 184.633 C 241.806 184.615 242.504 184.603 243.775 184.603 L 245.722 184.603 L 245.801 184.523 C 245.903 184.43 245.906 184.294 245.817 184.2 L 245.748 184.131 L 243.769 184.131 C 242.363 184.131 241.753 184.14 241.665 184.168 C 241.497 184.216 241.289 184.385 241.197 184.552 C 241.124 184.678 241.124 184.703 241.108 186.316 C 241.088 188.169 241.101 188.094 240.818 188.223 C 240.657 188.298 240.492 188.286 240.343 188.182 C 240.149 188.053 240.152 188.075 240.152 186.449 C 240.152 185.571 240.14 184.889 240.12 184.788 C 240.074 184.555 239.936 184.357 239.745 184.241 L 239.583 184.147 L 238.813 184.137 L 238.045 184.127 L 238.045 183.86 L 238.045 183.596 L 244.895 183.596 L 251.745 183.596 L 251.745 183.863 Z M 239.53 184.694 C 239.626 184.785 239.626 184.788 239.626 185.178 L 239.626 185.571 L 239.454 185.593 C 239.188 185.625 238.987 185.697 238.763 185.838 C 238.542 185.98 238.388 186.006 238.236 185.927 C 238.065 185.841 238.045 185.757 238.045 185.156 L 238.045 184.603 L 238.74 184.603 L 239.435 184.603 L 239.53 184.694 Z M 239.639 187.908 C 239.685 188.236 239.896 188.519 240.205 188.663 C 240.443 188.777 240.828 188.77 241.062 188.654 C 241.374 188.497 241.601 188.166 241.601 187.868 L 241.601 187.748 L 246.673 187.748 L 251.745 187.748 L 251.745 187.934 C 251.745 188.704 251.307 189.478 250.615 189.924 C 250.187 190.202 249.522 190.456 248.978 190.551 C 248.616 190.613 241.177 190.613 240.811 190.551 C 239.886 190.394 239.049 189.962 238.588 189.406 C 238.256 189.006 238.045 188.456 238.045 187.975 L 238.045 187.748 L 238.833 187.748 L 239.616 187.748 L 239.639 187.908 Z"/>
  </mask>
  <path d="M 244.137 175.063 C 244.075 175.065 243.851 175.087 243.643 175.106 C 242.857 175.175 241.835 175.38 241.71 175.49 C 241.601 175.584 241.608 175.739 241.727 175.826 C 241.829 175.905 241.856 175.905 242.422 175.779 C 244.604 175.298 247.194 175.506 249.093 176.32 C 250.632 176.975 251.841 178.139 252.48 179.567 C 252.677 180.01 252.707 180.218 252.608 180.406 C 252.529 180.558 252.341 180.724 252.213 180.755 C 252.163 180.771 248.854 180.781 244.859 180.781 L 237.594 180.781 L 237.436 180.686 C 237.099 180.488 237.043 180.195 237.241 179.714 C 237.857 178.242 238.993 177.091 240.514 176.399 C 240.955 176.197 241.041 176.135 241.041 176.009 C 241.041 175.899 240.909 175.764 240.801 175.764 C 240.759 175.764 240.518 175.861 240.265 175.981 C 238.789 176.679 237.692 177.711 237.007 179.048 C 236.892 179.275 236.76 179.567 236.711 179.696 C 236.546 180.139 236.612 180.563 236.898 180.875 L 237.034 181.02 L 236.865 181.184 C 236.552 181.492 236.444 181.794 236.471 182.31 C 236.484 182.561 236.503 182.646 236.586 182.816 C 236.754 183.156 237.023 183.395 237.363 183.505 L 237.534 183.561 L 237.534 184.256 L 237.534 184.955 L 237.376 185.012 C 236.984 185.153 236.668 185.455 236.54 185.807 C 236.448 186.059 236.457 186.666 236.556 186.899 C 236.701 187.245 236.961 187.49 237.337 187.639 L 237.534 187.714 L 237.554 188.069 C 237.567 188.264 237.6 188.516 237.633 188.628 C 237.946 189.759 238.907 190.579 240.334 190.935 C 240.936 191.085 240.986 191.085 245.076 191.076 C 248.847 191.063 248.936 191.063 249.226 190.997 C 250.79 190.652 251.831 189.812 252.157 188.628 C 252.19 188.516 252.222 188.264 252.236 188.069 L 252.255 187.714 L 252.454 187.639 C 253.007 187.424 253.29 187.028 253.319 186.424 C 253.342 185.929 253.217 185.593 252.901 185.301 C 252.753 185.159 252.41 184.979 252.295 184.979 C 252.243 184.979 252.239 184.933 252.246 184.269 L 252.255 183.561 L 252.427 183.505 C 252.766 183.395 253.036 183.156 253.204 182.816 C 253.286 182.646 253.306 182.561 253.319 182.31 C 253.346 181.803 253.234 181.486 252.924 181.184 L 252.756 181.02 L 252.892 180.875 C 253.184 180.555 253.244 180.133 253.056 179.642 C 252.667 178.613 251.844 177.525 250.935 176.83 C 249.595 175.81 247.932 175.242 245.807 175.075 C 245.422 175.043 244.414 175.034 244.137 175.063 Z M 251.746 183.863 L 251.746 184.131 L 249.212 184.131 L 246.677 184.131 L 246.611 184.212 C 246.571 184.26 246.542 184.316 246.542 184.339 C 246.542 184.42 246.617 184.534 246.697 184.569 C 246.752 184.593 247.51 184.603 249.258 184.603 L 251.746 184.603 L 251.746 185.144 C 251.746 185.729 251.728 185.792 251.57 185.905 C 251.422 186.009 251.264 185.99 251.017 185.839 C 250.718 185.65 250.557 185.603 250.23 185.6 C 249.832 185.596 249.641 185.662 249.203 185.959 C 248.807 186.228 248.61 186.295 248.323 186.254 C 248.103 186.223 247.997 186.172 247.665 185.942 C 247.266 185.672 247.069 185.603 246.69 185.6 C 246.241 185.596 246.09 185.656 245.445 186.097 C 245.184 186.273 244.813 186.311 244.5 186.188 C 244.437 186.163 244.279 186.062 244.144 185.968 C 243.623 185.593 243.173 185.502 242.638 185.662 C 242.451 185.719 242.289 185.811 242.03 186.006 C 241.931 186.081 241.792 186.163 241.727 186.191 L 241.601 186.239 L 241.601 185.546 C 241.601 184.81 241.622 184.71 241.763 184.634 C 241.806 184.615 242.504 184.603 243.775 184.603 L 245.722 184.603 L 245.8 184.524 C 245.903 184.43 245.906 184.294 245.817 184.2 L 245.748 184.131 L 243.769 184.131 C 242.362 184.131 241.753 184.14 241.664 184.168 C 241.496 184.216 241.289 184.385 241.197 184.553 C 241.124 184.678 241.124 184.703 241.107 186.317 C 241.088 188.169 241.101 188.094 240.818 188.223 C 240.656 188.298 240.491 188.286 240.343 188.182 C 240.149 188.053 240.152 188.076 240.152 186.449 C 240.152 185.571 240.139 184.889 240.12 184.788 C 240.074 184.556 239.935 184.358 239.744 184.241 L 239.583 184.147 L 238.812 184.137 L 238.045 184.128 L 238.045 183.86 L 238.045 183.596 L 244.895 183.596 L 251.746 183.596 L 251.746 183.863 Z M 239.53 184.694 C 239.625 184.785 239.625 184.788 239.625 185.178 L 239.625 185.571 L 239.454 185.593 C 239.188 185.625 238.986 185.697 238.763 185.839 C 238.542 185.98 238.387 186.006 238.236 185.927 C 238.065 185.842 238.045 185.757 238.045 185.156 L 238.045 184.603 L 238.74 184.603 L 239.434 184.603 L 239.53 184.694 Z M 239.639 187.908 C 239.685 188.236 239.895 188.519 240.205 188.663 C 240.442 188.777 240.828 188.77 241.061 188.654 C 241.374 188.497 241.601 188.166 241.601 187.868 L 241.601 187.748 L 246.674 187.748 L 251.746 187.748 L 251.746 187.934 C 251.746 188.705 251.307 189.479 250.615 189.924 C 250.187 190.202 249.522 190.456 248.978 190.551 C 248.617 190.614 241.177 190.614 240.811 190.551 C 239.886 190.393 239.049 189.963 238.588 189.406 C 238.255 189.007 238.045 188.456 238.045 187.975 L 238.045 187.748 L 238.832 187.748 L 239.616 187.748 L 239.639 187.908 Z" stroke="black" stroke-width="1.5" mask="url(#path-1-inside-1_232_3764)" style="fill: rgb(217, 217, 217);"/>
  <path d="M 244.947 176.964 C 244.834 177.014 244.797 177.123 244.797 177.406 C 244.797 177.621 244.81 177.681 244.869 177.748 C 244.954 177.848 245.126 177.857 245.245 177.77 C 245.321 177.714 245.328 177.689 245.328 177.393 C 245.328 177.086 245.324 177.076 245.232 177.002 C 245.129 176.922 245.061 176.912 244.947 176.964 Z" fill="black" style=""/>
  <path d="M 242.787 177.005 C 242.697 177.061 242.433 177.49 242.433 177.577 C 242.433 177.681 242.581 177.807 242.701 177.807 C 242.841 177.807 242.886 177.77 243.05 177.503 C 243.208 177.235 243.221 177.141 243.102 177.037 C 243.009 176.948 242.893 176.937 242.787 177.005 Z" fill="black" style=""/>
  <path d="M 247.043 177.024 C 246.913 177.117 246.927 177.251 247.081 177.493 C 247.262 177.773 247.29 177.798 247.437 177.798 C 247.537 177.798 247.581 177.779 247.636 177.717 C 247.738 177.599 247.728 177.537 247.55 177.263 C 247.348 176.952 247.225 176.893 247.043 177.024 Z" fill="black" style=""/>
</svg>